<svg width="300" height="287" viewBox="0 0 300 287" fill="none" xmlns="http://www.w3.org/2000/svg">
<path d="M289.287 66.7469C290.118 68.1235 290.927 69.5136 291.714 70.9168C290.285 70.0224 289.33 68.4926 289.287 66.7469Z" fill="#3E3E3E" fill-opacity="0.52"/>
<path d="M259.954 31.3645C262.451 33.6057 264.872 35.9222 267.215 38.3104C266.309 39.9121 264.537 41 262.5 41C259.541 41 257.143 38.7055 257.143 35.875C257.143 33.926 258.28 32.2312 259.954 31.3645Z" fill="#3E3E3E" fill-opacity="0.52"/>
<path d="M225.871 7.92718C227.338 8.67998 228.791 9.45391 230.23 10.2486C228.405 10.2078 226.806 9.29418 225.871 7.92718Z" fill="#3E3E3E" fill-opacity="0.52"/>
<path d="M69.7703 10.2486C71.2093 9.45391 72.6623 8.67997 74.129 7.92718C73.1942 9.29418 71.5951 10.2078 69.7703 10.2486Z" fill="#3E3E3E" fill-opacity="0.52"/>
<path d="M32.7852 38.3104C35.1279 35.9222 37.5494 33.6057 40.0457 31.3645C41.72 32.2312 42.8571 33.926 42.8571 35.875C42.8571 38.7055 40.4587 41 37.5 41C35.4628 41 33.6911 39.9121 32.7852 38.3104Z" fill="#3E3E3E" fill-opacity="0.52"/>
<path d="M8.28625 70.9168C9.07314 69.5136 9.88214 68.1235 10.7128 66.7469C10.6702 68.4926 9.71517 70.0224 8.28625 70.9168Z" fill="#3E3E3E" fill-opacity="0.52"/>
<path d="M291.714 216.083C290.927 217.486 290.118 218.876 289.287 220.253C289.33 218.507 290.285 216.978 291.714 216.083Z" fill="#3E3E3E" fill-opacity="0.52"/>
<path d="M267.215 248.69C266.309 247.088 264.537 246 262.5 246C259.541 246 257.143 248.295 257.143 251.125C257.143 253.074 258.28 254.769 259.954 255.635C262.451 253.394 264.872 251.078 267.215 248.69Z" fill="#3E3E3E" fill-opacity="0.52"/>
<path d="M230.23 276.751C228.405 276.792 226.806 277.706 225.871 279.073C227.338 278.32 228.791 277.546 230.23 276.751Z" fill="#3E3E3E" fill-opacity="0.52"/>
<path d="M74.129 279.073C73.1942 277.706 71.5951 276.792 69.7703 276.751C71.2093 277.546 72.6623 278.32 74.129 279.073Z" fill="#3E3E3E" fill-opacity="0.52"/>
<path d="M40.0457 255.635C41.72 254.769 42.8571 253.074 42.8571 251.125C42.8571 248.295 40.4587 246 37.5 246C35.4628 246 33.6911 247.088 32.7852 248.69C35.1279 251.078 37.5494 253.394 40.0457 255.635Z" fill="#3E3E3E" fill-opacity="0.52"/>
<path d="M10.7128 220.253C10.6702 218.507 9.71517 216.978 8.28625 216.083C9.07314 217.486 9.88214 218.876 10.7128 220.253Z" fill="#3E3E3E" fill-opacity="0.52"/>
<path d="M107.143 5.125C107.143 7.95546 104.744 10.25 101.786 10.25C98.827 10.25 96.4286 7.95546 96.4286 5.125C96.4286 2.29454 98.827 0 101.786 0C104.744 0 107.143 2.29454 107.143 5.125Z" fill="#3E3E3E" fill-opacity="0.52"/>
<path d="M139.286 5.125C139.286 7.95546 136.887 10.25 133.929 10.25C130.97 10.25 128.571 7.95546 128.571 5.125C128.571 2.29454 130.97 0 133.929 0C136.887 0 139.286 2.29454 139.286 5.125Z" fill="#3E3E3E" fill-opacity="0.52"/>
<path d="M171.429 5.125C171.429 7.95546 169.03 10.25 166.071 10.25C163.113 10.25 160.714 7.95546 160.714 5.125C160.714 2.29454 163.113 0 166.071 0C169.03 0 171.429 2.29454 171.429 5.125Z" fill="#3E3E3E" fill-opacity="0.52"/>
<path d="M203.571 5.125C203.571 7.95546 201.173 10.25 198.214 10.25C195.256 10.25 192.857 7.95546 192.857 5.125C192.857 2.29454 195.256 0 198.214 0C201.173 0 203.571 2.29454 203.571 5.125Z" fill="#3E3E3E" fill-opacity="0.52"/>
<path d="M75 35.875C75 38.7055 72.6015 41 69.6429 41C66.6842 41 64.2857 38.7055 64.2857 35.875C64.2857 33.0445 66.6842 30.75 69.6429 30.75C72.6015 30.75 75 33.0445 75 35.875Z" fill="#3E3E3E" fill-opacity="0.52"/>
<path d="M107.143 35.875C107.143 38.7055 104.744 41 101.786 41C98.827 41 96.4286 38.7055 96.4286 35.875C96.4286 33.0445 98.827 30.75 101.786 30.75C104.744 30.75 107.143 33.0445 107.143 35.875Z" fill="#3E3E3E" fill-opacity="0.52"/>
<path d="M139.286 35.875C139.286 38.7055 136.887 41 133.929 41C130.97 41 128.571 38.7055 128.571 35.875C128.571 33.0445 130.97 30.75 133.929 30.75C136.887 30.75 139.286 33.0445 139.286 35.875Z" fill="#3E3E3E" fill-opacity="0.52"/>
<path d="M171.429 35.875C171.429 38.7055 169.03 41 166.071 41C163.113 41 160.714 38.7055 160.714 35.875C160.714 33.0445 163.113 30.75 166.071 30.75C169.03 30.75 171.429 33.0445 171.429 35.875Z" fill="#3E3E3E" fill-opacity="0.52"/>
<path d="M203.571 35.875C203.571 38.7055 201.173 41 198.214 41C195.256 41 192.857 38.7055 192.857 35.875C192.857 33.0445 195.256 30.75 198.214 30.75C201.173 30.75 203.571 33.0445 203.571 35.875Z" fill="#3E3E3E" fill-opacity="0.52"/>
<path d="M235.714 35.875C235.714 38.7055 233.316 41 230.357 41C227.398 41 225 38.7055 225 35.875C225 33.0445 227.398 30.75 230.357 30.75C233.316 30.75 235.714 33.0445 235.714 35.875Z" fill="#3E3E3E" fill-opacity="0.52"/>
<path d="M42.8571 66.625C42.8571 69.4555 40.4587 71.75 37.5 71.75C34.5413 71.75 32.1429 69.4555 32.1429 66.625C32.1429 63.7945 34.5413 61.5 37.5 61.5C40.4587 61.5 42.8571 63.7945 42.8571 66.625Z" fill="#3E3E3E" fill-opacity="0.52"/>
<path d="M75 66.625C75 69.4555 72.6015 71.75 69.6429 71.75C66.6842 71.75 64.2857 69.4555 64.2857 66.625C64.2857 63.7945 66.6842 61.5 69.6429 61.5C72.6015 61.5 75 63.7945 75 66.625Z" fill="#3E3E3E" fill-opacity="0.52"/>
<path d="M107.143 66.625C107.143 69.4555 104.744 71.75 101.786 71.75C98.827 71.75 96.4286 69.4555 96.4286 66.625C96.4286 63.7945 98.827 61.5 101.786 61.5C104.744 61.5 107.143 63.7945 107.143 66.625Z" fill="#3E3E3E" fill-opacity="0.52"/>
<path d="M139.286 66.625C139.286 69.4555 136.887 71.75 133.929 71.75C130.97 71.75 128.571 69.4555 128.571 66.625C128.571 63.7945 130.97 61.5 133.929 61.5C136.887 61.5 139.286 63.7945 139.286 66.625Z" fill="#3E3E3E" fill-opacity="0.52"/>
<path d="M171.429 66.625C171.429 69.4555 169.03 71.75 166.071 71.75C163.113 71.75 160.714 69.4555 160.714 66.625C160.714 63.7945 163.113 61.5 166.071 61.5C169.03 61.5 171.429 63.7945 171.429 66.625Z" fill="#3E3E3E" fill-opacity="0.52"/>
<path d="M203.571 66.625C203.571 69.4555 201.173 71.75 198.214 71.75C195.256 71.75 192.857 69.4555 192.857 66.625C192.857 63.7945 195.256 61.5 198.214 61.5C201.173 61.5 203.571 63.7945 203.571 66.625Z" fill="#3E3E3E" fill-opacity="0.52"/>
<path d="M235.714 66.625C235.714 69.4555 233.316 71.75 230.357 71.75C227.398 71.75 225 69.4555 225 66.625C225 63.7945 227.398 61.5 230.357 61.5C233.316 61.5 235.714 63.7945 235.714 66.625Z" fill="#3E3E3E" fill-opacity="0.52"/>
<path d="M267.857 66.625C267.857 69.4555 265.459 71.75 262.5 71.75C259.541 71.75 257.143 69.4555 257.143 66.625C257.143 63.7945 259.541 61.5 262.5 61.5C265.459 61.5 267.857 63.7945 267.857 66.625Z" fill="#3E3E3E" fill-opacity="0.52"/>
<path d="M10.7143 97.375C10.7143 100.205 8.31581 102.5 5.35714 102.5C2.39847 102.5 0 100.205 0 97.375C0 94.5445 2.39847 92.25 5.35714 92.25C8.31581 92.25 10.7143 94.5445 10.7143 97.375Z" fill="#3E3E3E" fill-opacity="0.52"/>
<path d="M42.8571 97.375C42.8571 100.205 40.4587 102.5 37.5 102.5C34.5413 102.5 32.1429 100.205 32.1429 97.375C32.1429 94.5445 34.5413 92.25 37.5 92.25C40.4587 92.25 42.8571 94.5445 42.8571 97.375Z" fill="#3E3E3E" fill-opacity="0.52"/>
<path d="M75 97.375C75 100.205 72.6015 102.5 69.6429 102.5C66.6842 102.5 64.2857 100.205 64.2857 97.375C64.2857 94.5445 66.6842 92.25 69.6429 92.25C72.6015 92.25 75 94.5445 75 97.375Z" fill="#3E3E3E" fill-opacity="0.52"/>
<path d="M107.143 97.375C107.143 100.205 104.744 102.5 101.786 102.5C98.827 102.5 96.4286 100.205 96.4286 97.375C96.4286 94.5445 98.827 92.25 101.786 92.25C104.744 92.25 107.143 94.5445 107.143 97.375Z" fill="#3E3E3E" fill-opacity="0.52"/>
<path d="M139.286 97.375C139.286 100.205 136.887 102.5 133.929 102.5C130.97 102.5 128.571 100.205 128.571 97.375C128.571 94.5445 130.97 92.25 133.929 92.25C136.887 92.25 139.286 94.5445 139.286 97.375Z" fill="#3E3E3E" fill-opacity="0.52"/>
<path d="M171.429 97.375C171.429 100.205 169.03 102.5 166.071 102.5C163.113 102.5 160.714 100.205 160.714 97.375C160.714 94.5445 163.113 92.25 166.071 92.25C169.03 92.25 171.429 94.5445 171.429 97.375Z" fill="#3E3E3E" fill-opacity="0.52"/>
<path d="M203.571 97.375C203.571 100.205 201.173 102.5 198.214 102.5C195.256 102.5 192.857 100.205 192.857 97.375C192.857 94.5445 195.256 92.25 198.214 92.25C201.173 92.25 203.571 94.5445 203.571 97.375Z" fill="#3E3E3E" fill-opacity="0.52"/>
<path d="M235.714 97.375C235.714 100.205 233.316 102.5 230.357 102.5C227.398 102.5 225 100.205 225 97.375C225 94.5445 227.398 92.25 230.357 92.25C233.316 92.25 235.714 94.5445 235.714 97.375Z" fill="#3E3E3E" fill-opacity="0.52"/>
<path d="M267.857 97.375C267.857 100.205 265.459 102.5 262.5 102.5C259.541 102.5 257.143 100.205 257.143 97.375C257.143 94.5445 259.541 92.25 262.5 92.25C265.459 92.25 267.857 94.5445 267.857 97.375Z" fill="#3E3E3E" fill-opacity="0.52"/>
<path d="M300 97.375C300 100.205 297.602 102.5 294.643 102.5C291.684 102.5 289.286 100.205 289.286 97.375C289.286 94.5445 291.684 92.25 294.643 92.25C297.602 92.25 300 94.5445 300 97.375Z" fill="#3E3E3E" fill-opacity="0.52"/>
<path d="M10.7143 128.125C10.7143 130.955 8.31581 133.25 5.35714 133.25C2.39847 133.25 0 130.955 0 128.125C0 125.295 2.39847 123 5.35714 123C8.31581 123 10.7143 125.295 10.7143 128.125Z" fill="#3E3E3E" fill-opacity="0.52"/>
<path d="M42.8571 128.125C42.8571 130.955 40.4587 133.25 37.5 133.25C34.5413 133.25 32.1429 130.955 32.1429 128.125C32.1429 125.295 34.5413 123 37.5 123C40.4587 123 42.8571 125.295 42.8571 128.125Z" fill="#3E3E3E" fill-opacity="0.52"/>
<path d="M75 128.125C75 130.955 72.6015 133.25 69.6429 133.25C66.6842 133.25 64.2857 130.955 64.2857 128.125C64.2857 125.295 66.6842 123 69.6429 123C72.6015 123 75 125.295 75 128.125Z" fill="#3E3E3E" fill-opacity="0.52"/>
<path d="M107.143 128.125C107.143 130.955 104.744 133.25 101.786 133.25C98.827 133.25 96.4286 130.955 96.4286 128.125C96.4286 125.295 98.827 123 101.786 123C104.744 123 107.143 125.295 107.143 128.125Z" fill="#3E3E3E" fill-opacity="0.52"/>
<path d="M139.286 128.125C139.286 130.955 136.887 133.25 133.929 133.25C130.97 133.25 128.571 130.955 128.571 128.125C128.571 125.295 130.97 123 133.929 123C136.887 123 139.286 125.295 139.286 128.125Z" fill="#3E3E3E" fill-opacity="0.52"/>
<path d="M171.429 128.125C171.429 130.955 169.03 133.25 166.071 133.25C163.113 133.25 160.714 130.955 160.714 128.125C160.714 125.295 163.113 123 166.071 123C169.03 123 171.429 125.295 171.429 128.125Z" fill="#3E3E3E" fill-opacity="0.52"/>
<path d="M203.571 128.125C203.571 130.955 201.173 133.25 198.214 133.25C195.256 133.25 192.857 130.955 192.857 128.125C192.857 125.295 195.256 123 198.214 123C201.173 123 203.571 125.295 203.571 128.125Z" fill="#3E3E3E" fill-opacity="0.52"/>
<path d="M235.714 128.125C235.714 130.955 233.316 133.25 230.357 133.25C227.398 133.25 225 130.955 225 128.125C225 125.295 227.398 123 230.357 123C233.316 123 235.714 125.295 235.714 128.125Z" fill="#3E3E3E" fill-opacity="0.52"/>
<path d="M267.857 128.125C267.857 130.955 265.459 133.25 262.5 133.25C259.541 133.25 257.143 130.955 257.143 128.125C257.143 125.295 259.541 123 262.5 123C265.459 123 267.857 125.295 267.857 128.125Z" fill="#3E3E3E" fill-opacity="0.52"/>
<path d="M300 128.125C300 130.955 297.602 133.25 294.643 133.25C291.684 133.25 289.286 130.955 289.286 128.125C289.286 125.295 291.684 123 294.643 123C297.602 123 300 125.295 300 128.125Z" fill="#3E3E3E" fill-opacity="0.52"/>
<path d="M10.7143 158.875C10.7143 161.705 8.31581 164 5.35714 164C2.39847 164 0 161.705 0 158.875C0 156.045 2.39847 153.75 5.35714 153.75C8.31581 153.75 10.7143 156.045 10.7143 158.875Z" fill="#3E3E3E" fill-opacity="0.52"/>
<path d="M42.8571 158.875C42.8571 161.705 40.4587 164 37.5 164C34.5413 164 32.1429 161.705 32.1429 158.875C32.1429 156.045 34.5413 153.75 37.5 153.75C40.4587 153.75 42.8571 156.045 42.8571 158.875Z" fill="#3E3E3E" fill-opacity="0.52"/>
<path d="M75 158.875C75 161.705 72.6015 164 69.6429 164C66.6842 164 64.2857 161.705 64.2857 158.875C64.2857 156.045 66.6842 153.75 69.6429 153.75C72.6015 153.75 75 156.045 75 158.875Z" fill="#3E3E3E" fill-opacity="0.52"/>
<path d="M107.143 158.875C107.143 161.705 104.744 164 101.786 164C98.827 164 96.4286 161.705 96.4286 158.875C96.4286 156.045 98.827 153.75 101.786 153.75C104.744 153.75 107.143 156.045 107.143 158.875Z" fill="#3E3E3E" fill-opacity="0.52"/>
<path d="M139.286 158.875C139.286 161.705 136.887 164 133.929 164C130.97 164 128.571 161.705 128.571 158.875C128.571 156.045 130.97 153.75 133.929 153.75C136.887 153.75 139.286 156.045 139.286 158.875Z" fill="#3E3E3E" fill-opacity="0.52"/>
<path d="M171.429 158.875C171.429 161.705 169.03 164 166.071 164C163.113 164 160.714 161.705 160.714 158.875C160.714 156.045 163.113 153.75 166.071 153.75C169.03 153.75 171.429 156.045 171.429 158.875Z" fill="#3E3E3E" fill-opacity="0.52"/>
<path d="M203.571 158.875C203.571 161.705 201.173 164 198.214 164C195.256 164 192.857 161.705 192.857 158.875C192.857 156.045 195.256 153.75 198.214 153.75C201.173 153.75 203.571 156.045 203.571 158.875Z" fill="#3E3E3E" fill-opacity="0.52"/>
<path d="M235.714 158.875C235.714 161.705 233.316 164 230.357 164C227.398 164 225 161.705 225 158.875C225 156.045 227.398 153.75 230.357 153.75C233.316 153.75 235.714 156.045 235.714 158.875Z" fill="#3E3E3E" fill-opacity="0.52"/>
<path d="M267.857 158.875C267.857 161.705 265.459 164 262.5 164C259.541 164 257.143 161.705 257.143 158.875C257.143 156.045 259.541 153.75 262.5 153.75C265.459 153.75 267.857 156.045 267.857 158.875Z" fill="#3E3E3E" fill-opacity="0.52"/>
<path d="M300 158.875C300 161.705 297.602 164 294.643 164C291.684 164 289.286 161.705 289.286 158.875C289.286 156.045 291.684 153.75 294.643 153.75C297.602 153.75 300 156.045 300 158.875Z" fill="#3E3E3E" fill-opacity="0.52"/>
<path d="M10.7143 189.625C10.7143 192.455 8.31581 194.75 5.35714 194.75C2.39847 194.75 0 192.455 0 189.625C0 186.795 2.39847 184.5 5.35714 184.5C8.31581 184.5 10.7143 186.795 10.7143 189.625Z" fill="#3E3E3E" fill-opacity="0.52"/>
<path d="M42.8571 189.625C42.8571 192.455 40.4587 194.75 37.5 194.75C34.5413 194.75 32.1429 192.455 32.1429 189.625C32.1429 186.795 34.5413 184.5 37.5 184.5C40.4587 184.5 42.8571 186.795 42.8571 189.625Z" fill="#3E3E3E" fill-opacity="0.52"/>
<path d="M75 189.625C75 192.455 72.6015 194.75 69.6429 194.75C66.6842 194.75 64.2857 192.455 64.2857 189.625C64.2857 186.795 66.6842 184.5 69.6429 184.5C72.6015 184.5 75 186.795 75 189.625Z" fill="#3E3E3E" fill-opacity="0.52"/>
<path d="M107.143 189.625C107.143 192.455 104.744 194.75 101.786 194.75C98.827 194.75 96.4286 192.455 96.4286 189.625C96.4286 186.795 98.827 184.5 101.786 184.5C104.744 184.5 107.143 186.795 107.143 189.625Z" fill="#3E3E3E" fill-opacity="0.52"/>
<path d="M139.286 189.625C139.286 192.455 136.887 194.75 133.929 194.75C130.97 194.75 128.571 192.455 128.571 189.625C128.571 186.795 130.97 184.5 133.929 184.5C136.887 184.5 139.286 186.795 139.286 189.625Z" fill="#3E3E3E" fill-opacity="0.52"/>
<path d="M171.429 189.625C171.429 192.455 169.03 194.75 166.071 194.75C163.113 194.75 160.714 192.455 160.714 189.625C160.714 186.795 163.113 184.5 166.071 184.5C169.03 184.5 171.429 186.795 171.429 189.625Z" fill="#3E3E3E" fill-opacity="0.52"/>
<path d="M203.571 189.625C203.571 192.455 201.173 194.75 198.214 194.75C195.256 194.75 192.857 192.455 192.857 189.625C192.857 186.795 195.256 184.5 198.214 184.5C201.173 184.5 203.571 186.795 203.571 189.625Z" fill="#3E3E3E" fill-opacity="0.52"/>
<path d="M235.714 189.625C235.714 192.455 233.316 194.75 230.357 194.75C227.398 194.75 225 192.455 225 189.625C225 186.795 227.398 184.5 230.357 184.5C233.316 184.5 235.714 186.795 235.714 189.625Z" fill="#3E3E3E" fill-opacity="0.52"/>
<path d="M267.857 189.625C267.857 192.455 265.459 194.75 262.5 194.75C259.541 194.75 257.143 192.455 257.143 189.625C257.143 186.795 259.541 184.5 262.5 184.5C265.459 184.5 267.857 186.795 267.857 189.625Z" fill="#3E3E3E" fill-opacity="0.52"/>
<path d="M300 189.625C300 192.455 297.602 194.75 294.643 194.75C291.684 194.75 289.286 192.455 289.286 189.625C289.286 186.795 291.684 184.5 294.643 184.5C297.602 184.5 300 186.795 300 189.625Z" fill="#3E3E3E" fill-opacity="0.52"/>
<path d="M42.8571 220.375C42.8571 223.205 40.4587 225.5 37.5 225.5C34.5413 225.5 32.1429 223.205 32.1429 220.375C32.1429 217.545 34.5413 215.25 37.5 215.25C40.4587 215.25 42.8571 217.545 42.8571 220.375Z" fill="#3E3E3E" fill-opacity="0.52"/>
<path d="M75 220.375C75 223.205 72.6015 225.5 69.6429 225.5C66.6842 225.5 64.2857 223.205 64.2857 220.375C64.2857 217.545 66.6842 215.25 69.6429 215.25C72.6015 215.25 75 217.545 75 220.375Z" fill="#3E3E3E" fill-opacity="0.52"/>
<path d="M107.143 220.375C107.143 223.205 104.744 225.5 101.786 225.5C98.827 225.5 96.4286 223.205 96.4286 220.375C96.4286 217.545 98.827 215.25 101.786 215.25C104.744 215.25 107.143 217.545 107.143 220.375Z" fill="#3E3E3E" fill-opacity="0.52"/>
<path d="M139.286 220.375C139.286 223.205 136.887 225.5 133.929 225.5C130.97 225.5 128.571 223.205 128.571 220.375C128.571 217.545 130.97 215.25 133.929 215.25C136.887 215.25 139.286 217.545 139.286 220.375Z" fill="#3E3E3E" fill-opacity="0.52"/>
<path d="M171.429 220.375C171.429 223.205 169.03 225.5 166.071 225.5C163.113 225.5 160.714 223.205 160.714 220.375C160.714 217.545 163.113 215.25 166.071 215.25C169.03 215.25 171.429 217.545 171.429 220.375Z" fill="#3E3E3E" fill-opacity="0.52"/>
<path d="M203.571 220.375C203.571 223.205 201.173 225.5 198.214 225.5C195.256 225.5 192.857 223.205 192.857 220.375C192.857 217.545 195.256 215.25 198.214 215.25C201.173 215.25 203.571 217.545 203.571 220.375Z" fill="#3E3E3E" fill-opacity="0.52"/>
<path d="M235.714 220.375C235.714 223.205 233.316 225.5 230.357 225.5C227.398 225.5 225 223.205 225 220.375C225 217.545 227.398 215.25 230.357 215.25C233.316 215.25 235.714 217.545 235.714 220.375Z" fill="#3E3E3E" fill-opacity="0.52"/>
<path d="M267.857 220.375C267.857 223.205 265.459 225.5 262.5 225.5C259.541 225.5 257.143 223.205 257.143 220.375C257.143 217.545 259.541 215.25 262.5 215.25C265.459 215.25 267.857 217.545 267.857 220.375Z" fill="#3E3E3E" fill-opacity="0.52"/>
<path d="M75 251.125C75 253.955 72.6015 256.25 69.6429 256.25C66.6842 256.25 64.2857 253.955 64.2857 251.125C64.2857 248.295 66.6842 246 69.6429 246C72.6015 246 75 248.295 75 251.125Z" fill="#3E3E3E" fill-opacity="0.52"/>
<path d="M107.143 251.125C107.143 253.955 104.744 256.25 101.786 256.25C98.827 256.25 96.4286 253.955 96.4286 251.125C96.4286 248.295 98.827 246 101.786 246C104.744 246 107.143 248.295 107.143 251.125Z" fill="#3E3E3E" fill-opacity="0.52"/>
<path d="M139.286 251.125C139.286 253.955 136.887 256.25 133.929 256.25C130.97 256.25 128.571 253.955 128.571 251.125C128.571 248.295 130.97 246 133.929 246C136.887 246 139.286 248.295 139.286 251.125Z" fill="#3E3E3E" fill-opacity="0.52"/>
<path d="M171.429 251.125C171.429 253.955 169.03 256.25 166.071 256.25C163.113 256.25 160.714 253.955 160.714 251.125C160.714 248.295 163.113 246 166.071 246C169.03 246 171.429 248.295 171.429 251.125Z" fill="#3E3E3E" fill-opacity="0.52"/>
<path d="M203.571 251.125C203.571 253.955 201.173 256.25 198.214 256.25C195.256 256.25 192.857 253.955 192.857 251.125C192.857 248.295 195.256 246 198.214 246C201.173 246 203.571 248.295 203.571 251.125Z" fill="#3E3E3E" fill-opacity="0.52"/>
<path d="M235.714 251.125C235.714 253.955 233.316 256.25 230.357 256.25C227.398 256.25 225 253.955 225 251.125C225 248.295 227.398 246 230.357 246C233.316 246 235.714 248.295 235.714 251.125Z" fill="#3E3E3E" fill-opacity="0.52"/>
<path d="M107.143 281.875C107.143 284.705 104.744 287 101.786 287C98.827 287 96.4286 284.705 96.4286 281.875C96.4286 279.045 98.827 276.75 101.786 276.75C104.744 276.75 107.143 279.045 107.143 281.875Z" fill="#3E3E3E" fill-opacity="0.52"/>
<path d="M139.286 281.875C139.286 284.705 136.887 287 133.929 287C130.97 287 128.571 284.705 128.571 281.875C128.571 279.045 130.97 276.75 133.929 276.75C136.887 276.75 139.286 279.045 139.286 281.875Z" fill="#3E3E3E" fill-opacity="0.52"/>
<path d="M171.429 281.875C171.429 284.705 169.03 287 166.071 287C163.113 287 160.714 284.705 160.714 281.875C160.714 279.045 163.113 276.75 166.071 276.75C169.03 276.75 171.429 279.045 171.429 281.875Z" fill="#3E3E3E" fill-opacity="0.52"/>
<path d="M203.571 281.875C203.571 284.705 201.173 287 198.214 287C195.256 287 192.857 284.705 192.857 281.875C192.857 279.045 195.256 276.75 198.214 276.75C201.173 276.75 203.571 279.045 203.571 281.875Z" fill="#3E3E3E" fill-opacity="0.52"/>
</svg>
