<svg width="43" height="43" viewBox="0 0 43 43" fill="none" xmlns="http://www.w3.org/2000/svg">
<path d="M17.9166 6.71875C18.6587 6.71875 19.2603 6.11713 19.2603 5.375C19.2603 4.63287 18.6587 4.03125 17.9166 4.03125V6.71875ZM25.0833 4.03125C24.3411 4.03125 23.7395 4.63287 23.7395 5.375C23.7395 6.11713 24.3411 6.71875 25.0833 6.71875V4.03125ZM23.2916 38.9688C24.0337 38.9688 24.6353 38.3671 24.6353 37.625C24.6353 36.8829 24.0337 36.2812 23.2916 36.2812V38.9688ZM38.0728 23.2917C38.0728 24.0338 38.6745 24.6354 39.4166 24.6354C40.1587 24.6354 40.7603 24.0338 40.7603 23.2917H38.0728ZM25.0833 22.8438C25.8254 22.8438 26.427 22.2421 26.427 21.5C26.427 20.7579 25.8254 20.1563 25.0833 20.1563V22.8438ZM32.2499 20.1563C31.5078 20.1563 30.9062 20.7579 30.9062 21.5C30.9062 22.2421 31.5078 22.8438 32.2499 22.8438V20.1563ZM4.927 23.2917V21.5H2.2395V23.2917H4.927ZM4.927 21.5V19.7083H2.2395V21.5H4.927ZM23.2916 36.2812H17.9166V38.9688H23.2916V36.2812ZM38.0728 19.7083V21.5H40.7603V19.7083H38.0728ZM2.2395 23.2917C2.2395 26.6321 2.23665 29.2726 2.51386 31.3345C2.79628 33.435 3.39133 35.1353 4.73214 36.4762L6.63249 34.5758C5.87424 33.8175 5.41975 32.7789 5.17741 30.9765C4.92985 29.1352 4.927 26.708 4.927 23.2917H2.2395ZM17.9166 36.2812C14.5002 36.2812 12.0731 36.2784 10.2319 36.0308C8.42928 35.7885 7.39074 35.334 6.63249 34.5758L4.73214 36.4762C6.07297 37.8169 7.77315 38.4119 9.87376 38.6945C11.9357 38.9716 14.5762 38.9688 17.9166 38.9688V36.2812ZM25.0833 6.71875C28.4996 6.71875 30.9268 6.7216 32.7681 6.96915C34.5705 7.2115 35.6091 7.66599 36.3673 8.42424L38.2678 6.52389C36.9269 5.18308 35.2266 4.58803 33.126 4.30561C31.0642 4.0284 28.4236 4.03125 25.0833 4.03125V6.71875ZM40.7603 19.7083C40.7603 16.3679 40.7632 13.7274 40.486 11.6655C40.2035 9.5649 39.6085 7.86472 38.2678 6.52389L36.3673 8.42424C37.1256 9.18249 37.5801 10.221 37.8224 12.0236C38.07 13.8648 38.0728 16.2919 38.0728 19.7083H40.7603ZM17.9166 4.03125C14.5762 4.03125 11.9357 4.0284 9.87376 4.30561C7.77317 4.58803 6.07297 5.18308 4.73214 6.52389L6.63249 8.42424C7.39074 7.66599 8.42928 7.2115 10.2319 6.96915C12.0731 6.7216 14.5002 6.71875 17.9166 6.71875V4.03125ZM4.927 19.7083C4.927 16.2919 4.92985 13.8648 5.17741 12.0236C5.41975 10.221 5.87424 9.18249 6.63249 8.42424L4.73214 6.52389C3.39133 7.86472 2.79628 9.5649 2.51386 11.6655C2.23665 13.7274 2.2395 16.3679 2.2395 19.7083H4.927ZM38.0728 21.5V23.2917H40.7603V21.5H38.0728ZM3.58325 22.8438H25.0833V20.1563H3.58325V22.8438ZM32.2499 22.8438H39.4166V20.1563H32.2499V22.8438Z" fill="white"/>
<path d="M24.1875 13.4375H32.25" stroke="white" stroke-width="3.75" stroke-linecap="round"/>
<path d="M10.75 31.3541V27.7708" stroke="white" stroke-width="3.75" stroke-linecap="round"/>
<path d="M10.75 15.2291V11.6458" stroke="white" stroke-width="3.75" stroke-linecap="round"/>
<path d="M16.125 31.3541V27.7708" stroke="white" stroke-width="3.75" stroke-linecap="round"/>
<path d="M16.125 15.2291V11.6458" stroke="white" stroke-width="3.75" stroke-linecap="round"/>
<path d="M34.6388 30.2527C35.0126 30.1129 35.4144 30.0368 35.8333 30.0368C36.2438 30.0368 36.6383 30.1099 37.0056 30.2444M37.0056 30.2444C38.4089 30.7586 39.4167 32.1701 39.4167 33.831C39.4167 35.9263 37.8124 37.625 35.8333 37.625H29.5625C28.0783 37.625 26.875 36.3509 26.875 34.7795C26.875 33.2078 28.0783 31.9338 29.5625 31.9338C29.7406 31.9338 29.9147 31.9522 30.0833 31.9872M37.0056 30.2444C36.8062 28.3488 35.288 26.875 33.4445 26.875C31.4654 26.875 29.8612 28.5737 29.8612 30.669C29.8612 31.1325 29.9396 31.5767 30.0833 31.9872M30.0833 31.9872C30.4372 32.0608 30.7661 32.2079 31.0555 32.413" stroke="white" stroke-width="3.75" stroke-linecap="round"/>
</svg>
