<svg width="38" height="38" viewBox="0 0 38 38" fill="none" xmlns="http://www.w3.org/2000/svg">
<path d="M20.5833 19C20.5833 18.1255 21.2921 17.4166 22.1666 17.4166H30.0833C30.9577 17.4166 31.6666 18.1255 31.6666 19V30.0833C31.6666 30.9578 30.9577 31.6666 30.0833 31.6666H22.1666C21.2921 31.6666 20.5833 30.9578 20.5833 30.0833V19Z" stroke="white" stroke-width="2" stroke-linecap="round"/>
<path d="M6.33325 7.91671C6.33325 7.04226 7.04214 6.33337 7.91659 6.33337H14.2499C15.1244 6.33337 15.8333 7.04226 15.8333 7.91671V19C15.8333 19.8745 15.1244 20.5834 14.2499 20.5834H7.91659C7.04214 20.5834 6.33325 19.8745 6.33325 19V7.91671Z" stroke="white" stroke-width="2" stroke-linecap="round"/>
<path d="M6.33325 26.9167C6.33325 26.0422 7.04214 25.3334 7.91659 25.3334H14.2499C15.1244 25.3334 15.8333 26.0422 15.8333 26.9167V30.0834C15.8333 30.9578 15.1244 31.6667 14.2499 31.6667H7.91659C7.04214 31.6667 6.33325 30.9578 6.33325 30.0834V26.9167Z" stroke="white" stroke-width="2" stroke-linecap="round"/>
<path d="M20.5833 7.91671C20.5833 7.04226 21.2921 6.33337 22.1666 6.33337H30.0833C30.9577 6.33337 31.6666 7.04226 31.6666 7.91671V11.0834C31.6666 11.9578 30.9577 12.6667 30.0833 12.6667H22.1666C21.2921 12.6667 20.5833 11.9578 20.5833 11.0834V7.91671Z" stroke="white" stroke-width="2" stroke-linecap="round"/>
</svg>
