<svg width="30" height="30" viewBox="0 0 30 30" fill="none" xmlns="http://www.w3.org/2000/svg">
<g clip-path="url(#clip0_713_878)">
<path d="M20.2101 25.1732C20.0547 25.0786 19.9192 24.9518 19.8115 24.7981C19.7618 24.7273 19.7198 24.6523 19.685 24.5749H2.02047V7.16373H25.9976V18.5326C26.5094 18.5788 26.9389 18.915 27.1192 19.3754C27.2789 19.2879 27.4569 19.2338 27.6439 19.2173C27.7704 19.2063 27.8961 19.2141 28.018 19.2382V2.82623C28.018 1.89779 27.2628 1.14246 26.3344 1.14246H1.68371C0.755338 1.14246 0 1.89779 0 2.82623V24.9117C0 25.8402 0.755338 26.5954 1.68371 26.5954H20.0567C19.9133 26.3051 19.8793 25.9773 19.9636 25.662C20.0123 25.4806 20.0964 25.3151 20.2101 25.1732ZM24.1486 3.96985C24.1486 3.62651 24.4269 3.3481 24.7703 3.3481H25.392C25.7354 3.3481 26.0136 3.62644 26.0136 3.96985V4.67446C26.0136 5.01781 25.7353 5.29614 25.392 5.29614H24.7703C24.4269 5.29614 24.1486 5.01781 24.1486 4.67446V3.96985ZM21.2578 3.96985C21.2578 3.62651 21.5361 3.3481 21.8795 3.3481H22.5012C22.8446 3.3481 23.1229 3.62644 23.1229 3.96985V4.67446C23.1229 5.01781 22.8445 5.29614 22.5012 5.29614H21.8795C21.5361 5.29614 21.2578 5.01781 21.2578 4.67446V3.96985ZM18.3669 3.96985C18.3669 3.62651 18.6453 3.3481 18.9885 3.3481H19.6102C19.9536 3.3481 20.232 3.62644 20.232 3.96985V4.67446C20.232 5.01781 19.9536 5.29614 19.6102 5.29614H18.9885C18.6453 5.29614 18.3669 5.01781 18.3669 4.67446V3.96985Z" fill="white"/>
<path d="M29.9961 23.9875L29.8092 22.928C29.784 22.7854 29.6481 22.6901 29.5053 22.7152L28.5631 22.8812C28.45 22.6158 28.3056 22.3672 28.1341 22.1397L28.7495 21.4061C28.7942 21.353 28.816 21.284 28.81 21.2147C28.8039 21.1453 28.7704 21.0813 28.7171 21.0365L27.8931 20.345C27.8398 20.3002 27.7708 20.2785 27.7015 20.2846C27.6321 20.2907 27.5681 20.324 27.5234 20.3773L26.9085 21.1103C26.6561 20.9817 26.3862 20.8825 26.1033 20.8171V19.8604C26.1033 19.7155 25.9858 19.5979 25.8409 19.5979H24.7651C24.6202 19.5979 24.5027 19.7155 24.5027 19.8604V20.8171C24.2197 20.8825 23.95 20.9817 23.6974 21.1103L23.0825 20.3774C22.9893 20.2664 22.8239 20.2519 22.7128 20.345L21.8887 21.0365C21.8354 21.0813 21.8021 21.1453 21.7959 21.2147C21.7899 21.284 21.8116 21.353 21.8564 21.4063L22.4718 22.1397C22.3006 22.3672 22.1559 22.616 22.0428 22.8813L21.1007 22.7152C20.9582 22.6901 20.822 22.7854 20.7967 22.928L20.6099 23.9875C20.5979 24.056 20.6135 24.1264 20.6533 24.1835C20.6934 24.2406 20.754 24.2794 20.8226 24.2915L21.7655 24.4576C21.7808 24.7497 21.8317 25.0324 21.9136 25.3015L21.0849 25.7798C21.0246 25.8144 20.9806 25.8719 20.9626 25.939C20.9446 26.0062 20.9541 26.0778 20.9888 26.1381L21.5267 27.0698C21.5613 27.1301 21.6187 27.174 21.6859 27.192C21.7083 27.198 21.7311 27.2009 21.7538 27.2009C21.7995 27.2009 21.8447 27.1891 21.885 27.1658L22.7144 26.6869C22.9094 26.8959 23.1296 27.0811 23.3702 27.2377L23.0427 28.1373C23.019 28.2027 23.022 28.2749 23.0515 28.338C23.0809 28.4011 23.1341 28.4499 23.1995 28.4736L24.2102 28.8414C24.2392 28.852 24.2697 28.8574 24.3 28.8574C24.3379 28.8574 24.376 28.8492 24.4111 28.8328C24.4741 28.8034 24.5228 28.7501 24.5466 28.6847L24.874 27.785C25.0144 27.802 25.1573 27.8108 25.3022 27.8108C25.4472 27.8108 25.59 27.8019 25.7304 27.785L26.0579 28.6847C26.0816 28.7501 26.1305 28.8034 26.1934 28.8328C26.2284 28.8491 26.2664 28.8574 26.3044 28.8574C26.3347 28.8574 26.3652 28.8521 26.3942 28.8414L27.4051 28.4736C27.4703 28.4499 27.5236 28.4009 27.5529 28.338C27.5824 28.2749 27.5855 28.2027 27.5617 28.1373L27.2342 27.2378C27.4746 27.0812 27.6948 26.8959 27.8901 26.6871L28.7194 27.1659C28.7596 27.1891 28.8049 27.2011 28.8506 27.2011C28.8733 27.2011 28.8963 27.198 28.9185 27.1921C28.9857 27.1741 29.043 27.1301 29.0778 27.0699L29.6156 26.1381C29.6504 26.078 29.6599 26.0062 29.6419 25.939C29.6238 25.872 29.5798 25.8146 29.5195 25.7798L28.691 25.3016C28.7729 25.0324 28.8236 24.7498 28.8389 24.4578L29.7818 24.2915C29.8504 24.2795 29.9113 24.2407 29.9511 24.1836C29.9925 24.1264 30.0081 24.056 29.9961 23.9875ZM25.3031 25.671C24.5061 25.671 23.86 25.0249 23.86 24.2279C23.86 23.4309 24.5062 22.7848 25.3031 22.7848C26.1001 22.7848 26.7462 23.4309 26.7462 24.2279C26.7462 25.0249 26.1001 25.671 25.3031 25.671Z" fill="white"/>
<path d="M11.7658 16.8151C11.7658 16.4756 11.5668 16.1638 11.2589 16.0207L8.44019 14.7111L11.2589 13.4013C11.5668 13.2581 11.7658 12.9464 11.7658 12.607V12.5843C11.7658 12.2835 11.6144 12.0074 11.3611 11.846C11.2209 11.7565 11.0577 11.7091 10.8892 11.7091C10.7621 11.7091 10.6346 11.737 10.5205 11.79L6.01422 13.8856C5.70639 14.0288 5.50757 14.3405 5.50757 14.6798V14.7425C5.50757 15.0813 5.70631 15.3929 6.01429 15.5367L10.521 17.6325C10.6376 17.6864 10.7616 17.7138 10.8898 17.7138C11.0568 17.7138 11.2196 17.6664 11.3611 17.5764C11.6146 17.4143 11.7659 17.1384 11.7659 16.838L11.7658 16.8151Z" fill="white"/>
<path d="M16.2119 9.57382C16.0476 9.34879 15.7832 9.21448 15.5046 9.21448H15.4822C15.0997 9.21448 14.7644 9.45916 14.6478 9.82286L11.6788 19.0224C11.5943 19.288 11.6418 19.5805 11.806 19.8055C11.9704 20.0304 12.2348 20.1648 12.5133 20.1648H12.5358C12.9182 20.1648 13.2533 19.92 13.3697 19.5564L16.3384 10.3576C16.4237 10.0922 16.3764 9.79922 16.2119 9.57382Z" fill="white"/>
<path d="M22.0036 13.8856L17.4973 11.79C17.3835 11.7372 17.2562 11.7092 17.1292 11.7092C16.9607 11.7092 16.7974 11.7565 16.6573 11.8458C16.4036 12.0075 16.2522 12.2835 16.2522 12.5843V12.6071C16.2522 12.9461 16.451 13.258 16.7592 13.4017L19.5778 14.7112L16.7591 16.0208C16.4512 16.1638 16.2522 16.4757 16.2522 16.8151V16.8381C16.2522 17.1385 16.4036 17.4143 16.6572 17.5765C16.7982 17.6664 16.9611 17.7139 17.1283 17.7139C17.2564 17.7139 17.3803 17.6865 17.4976 17.6323L22.0042 15.5366C22.3119 15.393 22.5106 15.0814 22.5106 14.7426V14.6799C22.5104 14.3406 22.3115 14.0288 22.0036 13.8856Z" fill="white"/>
</g>
<defs>
<clipPath id="clip0_713_878">
<rect width="30" height="30" fill="white"/>
</clipPath>
</defs>
</svg>
