<svg width="43" height="43" viewBox="0 0 43 43" fill="none" xmlns="http://www.w3.org/2000/svg">
<g clip-path="url(#clip0_744_320)">
<path fill-rule="evenodd" clip-rule="evenodd" d="M40.3662 11.1846C40.4587 11.8705 40.5103 12.6033 40.5103 13.3945C40.5103 17.1742 40.1598 17.3871 32.308 40.0847C38.7 36.3566 43 29.4314 43 21.5C43 17.7612 42.0454 14.2462 40.3662 11.1846ZM21.8784 23.3813L15.4263 42.1245C19.78 43.4059 24.3939 43.2754 28.6401 41.7833C28.5821 41.6908 28.5305 41.5915 28.4875 41.4862L21.8784 23.3813ZM36.0147 20.4145C36.0147 17.7571 35.06 15.9161 34.2409 14.4842C33.153 12.7126 32.1296 11.2146 32.1296 9.44299C32.1296 7.46714 33.6303 5.62695 35.7416 5.62695C35.8362 5.62695 35.9265 5.63945 36.019 5.64375C32.1941 2.13925 27.0986 0 21.5 0C13.9901 0 7.38096 3.85245 3.53676 9.6897C4.90631 9.7327 6.74454 9.75039 10.6511 9.44509C11.8099 9.37629 11.9454 11.0786 10.7887 11.214C10.7887 11.214 9.6234 11.352 8.32695 11.4208L16.1572 34.7097L20.8615 20.5972L17.5118 11.4187C16.3551 11.3521 15.2586 11.214 15.2586 11.214C14.0997 11.1452 14.2352 9.37419 15.394 9.44299C19.8381 9.78484 22.1128 9.81064 26.7869 9.44299C27.9457 9.37419 28.0833 11.0764 26.9244 11.214C26.9244 11.214 25.757 11.3521 24.4627 11.4187L32.2328 34.5312C35.3009 24.28 36.0147 22.5645 36.0147 20.4145ZM0 21.5C0 30.0097 4.945 37.3649 12.1174 40.85L1.86189 12.7499C0.668644 15.4245 0 18.3825 0 21.5Z" fill="white"/>
</g>
<defs>
<clipPath id="clip0_744_320">
<rect width="43" height="43" fill="white"/>
</clipPath>
</defs>
</svg>
